# 
# Wavefront OBJ file
# Converted by the DEEP Exploration Deep Exploration 6.5 x64 6.5.0.9182
# Right Hemisphere, LTD
# http://www.righthemisphere.com/
# 
mtllib GRID.mtl
# object axes_pCube1_group
g axes_pCube1_group
v -561.01404 -561.01404 -561.01404
v -561.01404 -561.01404 561.01404
v -561.01404 561.01404 -561.01404
v -561.01404 561.01404 561.01404
v 561.01404 561.01404 -561.01404
v 561.01404 -561.01404 -561.01404
v 561.01404 -561.01404 561.01404
# 7 verticies
vt 0.99797 0.40344
vt 0.99797 0.99866
vt 0.39239 0.40344
vt 0.39239 0.99866
vt 0.59650 0.99905
vt 0.00128 0.99905
vt 0.59650 0.40175
vt 0.00128 0.40175
vt 0.89306 0.40350
vt 0.89306 0.99872
vt 0.29783 0.40350
vt 0.29783 0.99872
# 12 texture verticies
vn 1.00000 0.00000 0.00000
vn 0.00000 1.00000 0.00000
vn 0.00000 0.00000 1.00000
# 3 normals
usemtl lambert3SG
f  1/1/1 3/2/1 2/3/1
f  2/3/1 3/2/1 4/4/1
f  6/5/2 1/6/2 7/7/2
f  7/7/2 1/6/2 2/8/2
f  6/9/3 5/10/3 1/11/3
f  1/11/3 5/10/3 3/12/3
